<svg xmlns="http://www.w3.org/2000/svg" viewBox="0 0 128 128">
  <defs>
    <linearGradient id="g" x1="0" x2="1" y1="0" y2="1">
      <stop stop-color="#ff4056"/><stop offset=".35" stop-color="#f4c35b"/><stop offset=".68" stop-color="#00a86b"/><stop offset="1" stop-color="#0b3b8f"/>
    </linearGradient>
  </defs>
  <rect width="128" height="128" rx="32" fill="#061a46"/>
  <path d="M20 96V32c0-8 6-14 14-14h60c8 0 14 6 14 14v64c0 8-6 14-14 14H34c-8 0-14-6-14-14Z" fill="url(#g)" opacity=".95"/>
  <path d="M33 36h62v56H33z" rx="10" fill="#fff5de" opacity=".92"/>
  <circle cx="64" cy="62" r="20" fill="#061a46" opacity=".94"/>
  <path d="M64 42l6 13 14 2-10 10 2 14-12-7-12 7 2-14-10-10 14-2z" fill="#f4c35b"/>
  <text x="64" y="104" text-anchor="middle" font-family="Arial,sans-serif" font-size="18" font-weight="900" fill="#fff5de">994</text>
</svg>
