<svg xmlns="http://www.w3.org/2000/svg" viewBox="0 0 36 24" width="36" height="24"><rect width="36" height="24" rx="3" fill="#fff"/><rect width="36" height="24" fill="#002f6c"/><polygon points="13,0 36,24 13,24" fill="#fcd116"/><polygon points="7,2.7 7.78,5.04 5.7,3.675 8.3,3.675 6.22,5.04" fill="#fff"/><polygon points="11,6.7 11.78,9.04 9.7,7.675 12.3,7.675 10.22,9.04" fill="#fff"/><polygon points="15,10.7 15.78,13.04 13.7,11.675 16.3,11.675 14.22,13.04" fill="#fff"/><polygon points="19,14.7 19.78,17.04 17.7,15.675 20.3,15.675 18.22,17.04" fill="#fff"/><polygon points="23,18.7 23.78,21.04 21.7,19.675 24.3,19.675 22.22,21.04" fill="#fff"/></svg>