<svg xmlns="http://www.w3.org/2000/svg" viewBox="0 0 36 24" width="36" height="24"><rect width="36" height="24" rx="3" fill="#fff"/><rect width="36" height="24" fill="#00247d"/><polygon points="26,4.8 27.32,8.76 23.8,6.45 28.2,6.45 24.68,8.76" fill="#cc142b"/><polygon points="30,10 31.2,13.6 28,11.5 32,11.5 28.8,13.6" fill="#cc142b"/><polygon points="23,14.2 24.08,17.44 21.2,15.55 24.8,15.55 21.92,17.44" fill="#cc142b"/><path d="M0 0h16v12H0z" fill="#012169"/><path d="M0 0l16 12M16 0L0 12" stroke="#fff" stroke-width="2"/><path d="M8 0v12M0 6h16" stroke="#fff" stroke-width="3"/><path d="M8 0v12M0 6h16" stroke="#c8102e" stroke-width="1.5"/></svg>