<svg xmlns="http://www.w3.org/2000/svg" viewBox="0 0 36 24" width="36" height="24"><rect width="36" height="24" rx="3" fill="#fff"/><rect width="36" height="24" fill="#b22234"/><rect y="1.7142857142857142" width="36" height="1.7142857142857142" fill="#fff"/><rect y="5.142857142857142" width="36" height="1.7142857142857142" fill="#fff"/><rect y="8.571428571428571" width="36" height="1.7142857142857142" fill="#fff"/><rect y="12" width="36" height="1.7142857142857142" fill="#fff"/><rect y="15.428571428571427" width="36" height="1.7142857142857142" fill="#fff"/><rect y="18.857142857142858" width="36" height="1.7142857142857142" fill="#fff"/><rect y="22.28571428571429" width="36" height="1.7142857142857142" fill="#fff"/><rect width="16" height="13" fill="#3c3b6e"/><circle cx="2" cy="2" r=".5" fill="#fff"/><circle cx="5.5" cy="2" r=".5" fill="#fff"/><circle cx="9" cy="2" r=".5" fill="#fff"/><circle cx="12.5" cy="2" r=".5" fill="#fff"/><circle cx="2" cy="5.5" r=".5" fill="#fff"/><circle cx="5.5" cy="5.5" r=".5" fill="#fff"/><circle cx="9" cy="5.5" r=".5" fill="#fff"/><circle cx="12.5" cy="5.5" r=".5" fill="#fff"/><circle cx="2" cy="9" r=".5" fill="#fff"/><circle cx="5.5" cy="9" r=".5" fill="#fff"/><circle cx="9" cy="9" r=".5" fill="#fff"/><circle cx="12.5" cy="9" r=".5" fill="#fff"/></svg>